<svg width="40" height="40" viewBox="0 0 40 40" xmlns="http://www.w3.org/2000/svg">
  <defs>
    <linearGradient id="logoGradient" x1="0%" y1="0%" x2="100%" y2="100%">
      <stop offset="0%" style="stop-color:#0d6efd;stop-opacity:1" />
      <stop offset="100%" style="stop-color:#0dcaf0;stop-opacity:1" />
    </linearGradient>
    <filter id="shadow" x="-20%" y="-20%" width="140%" height="140%">
      <dropShadow dx="1" dy="1" stdDeviation="1" flood-color="#000" flood-opacity="0.2"/>
    </filter>
  </defs>
  
  <!-- Background Circle -->
  <circle cx="20" cy="20" r="18" fill="url(#logoGradient)" filter="url(#shadow)"/>
  
  <!-- AI Brain Symbol -->
  <g transform="translate(8, 6)">
    <!-- Brain outline -->
    <path d="M12 3C8.5 3 6 5.5 6 9c0 1 0.2 2 0.6 2.9C5.4 12.5 4 13.8 4 15.5c0 1.9 1.6 3.5 3.5 3.5h1c0.3 1.2 1.4 2 2.8 2h4.4c1.4 0 2.5-0.8 2.8-2h1c1.9 0 3.5-1.6 3.5-3.5 0-1.7-1.4-3-2.6-3.6C20.8 11 21 10 21 9c0-3.5-2.5-6-6-6-1.5 0-3 0.5-4 1.5C10 3.5 9 3 8 3c-2 0-3.5 1.5-3.5 3.5S6 10 8 10h1c0.6-2.8 2.7-5 5.5-5S19 7.2 19 10v1h-2v-1c0-1.1-0.9-2-2-2s-2 0.9-2 2v6h-2V10c0-2.2-1.8-4-4-4S3 7.8 3 10s1.8 4 4 4h5v2H8c-1.1 0-2 0.9-2 2s0.9 2 2 2h8c1.1 0 2-0.9 2-2s-0.9-2-2-2z" 
          fill="rgba(255,255,255,0.9)" stroke="rgba(255,255,255,0.3)" stroke-width="0.5"/>
    
    <!-- Neural network nodes -->
    <circle cx="8" cy="8" r="1.5" fill="white" opacity="0.9"/>
    <circle cx="16" cy="8" r="1.5" fill="white" opacity="0.9"/>
    <circle cx="12" cy="12" r="1.5" fill="white" opacity="0.9"/>
    <circle cx="6" cy="16" r="1.2" fill="white" opacity="0.8"/>
    <circle cx="18" cy="16" r="1.2" fill="white" opacity="0.8"/>
    
    <!-- Connecting lines -->
    <line x1="8" y1="8" x2="12" y2="12" stroke="white" stroke-width="0.8" opacity="0.6"/>
    <line x1="16" y1="8" x2="12" y2="12" stroke="white" stroke-width="0.8" opacity="0.6"/>
    <line x1="12" y1="12" x2="6" y2="16" stroke="white" stroke-width="0.8" opacity="0.6"/>
    <line x1="12" y1="12" x2="18" y2="16" stroke="white" stroke-width="0.8" opacity="0.6"/>
  </g>
  
  <!-- Calendar Grid Overlay -->
  <g transform="translate(8, 22)" opacity="0.8">
    <!-- Calendar base -->
    <rect x="0" y="0" width="24" height="16" rx="2" fill="white" opacity="0.9"/>
    
    <!-- Calendar header -->
    <rect x="0" y="0" width="24" height="4" rx="2" fill="rgba(0,0,0,0.1)"/>
    
    <!-- Calendar grid -->
    <g stroke="rgba(0,0,0,0.2)" stroke-width="0.5" fill="none">
      <!-- Vertical lines -->
      <line x1="4" y1="4" x2="4" y2="16"/>
      <line x1="8" y1="4" x2="8" y2="16"/>
      <line x1="12" y1="4" x2="12" y2="16"/>
      <line x1="16" y1="4" x2="16" y2="16"/>
      <line x1="20" y1="4" x2="20" y2="16"/>
      
      <!-- Horizontal lines -->
      <line x1="0" y1="8" x2="24" y2="8"/>
      <line x1="0" y1="12" x2="24" y2="12"/>
    </g>
    
    <!-- Sample timetable entries -->
    <rect x="1" y="5" width="6" height="2" fill="#0d6efd" opacity="0.7" rx="0.5"/>
    <rect x="9" y="5" width="6" height="2" fill="#198754" opacity="0.7" rx="0.5"/>
    <rect x="17" y="5" width="6" height="2" fill="#ffc107" opacity="0.7" rx="0.5"/>
    
    <rect x="1" y="9" width="6" height="2" fill="#dc3545" opacity="0.7" rx="0.5"/>
    <rect x="17" y="9" width="6" height="2" fill="#6f42c1" opacity="0.7" rx="0.5"/>
    
    <rect x="5" y="13" width="6" height="2" fill="#fd7e14" opacity="0.7" rx="0.5"/>
    <rect x="13" y="13" width="6" height="2" fill="#20c997" opacity="0.7" rx="0.5"/>
  </g>
  
  <!-- Sparkle effect -->
  <g opacity="0.6">
    <circle cx="32" cy="8" r="1" fill="white">
      <animate attributeName="opacity" values="0;1;0" dur="2s" repeatCount="indefinite"/>
    </circle>
    <circle cx="8" cy="32" r="0.8" fill="white">
      <animate attributeName="opacity" values="0;1;0" dur="1.5s" repeatCount="indefinite" begin="0.5s"/>
    </circle>
    <circle cx="34" cy="30" r="0.6" fill="white">
      <animate attributeName="opacity" values="0;1;0" dur="1.8s" repeatCount="indefinite" begin="1s"/>
    </circle>
  </g>
</svg>
